<?xml version="1.0" encoding="UTF-8"?>
<svg clip-rule="evenodd" fill-rule="evenodd" stroke-linejoin="round" stroke-miterlimit="2" version="1.1" viewBox="0 0 800 800" xml:space="preserve" xmlns="http://www.w3.org/2000/svg"><path d="M0 0h800v800H0z"/><g transform="translate(-15.414 23.149)" fill="#fff" stop-color="#000000" stroke="#fff6f6" stroke-linecap="round" stroke-width=".8" style="shape-inside:url(#rect846);white-space:pre" aria-label="NMA"><path d="m133.33 465.52h32.933v-92.467c0-10.387-0.25333-21.28-1.2667-28.88 3.5467 5.32 7.6 10.133 11.653 14.693l89.68 106.65h23.053v-177.33h-32.427v88.413c0 10.387 0.25334 21.28 1.2667 28.88-3.5467-5.32-7.6-10.133-11.653-14.693l-86.387-102.6h-26.853z"/><path d="m314.71 465.52h34.707v-71.693c0-24.067-0.75999-35.973-2.5333-51.427l59.027 123.12h17.227l59.027-123.12c-1.7733 15.453-2.5333 27.36-2.5333 51.427v71.693h34.707v-177.33h-42.56l-36.987 78.28c-12.92 27.36-17.227 38.76-19.507 47.373-2.5333-8.6133-6.84-20.013-19.76-47.373l-36.733-78.28h-44.08z"/><path d="m522.19 465.52h38.507l12.16-33.693h73.973l12.16 33.693h38.507l-72.2-177.33h-30.653zm62.32-64.347 19-48.387c2.5333-6.3333 4.56-13.427 6.3333-20.267 1.52 6.84 3.8 13.68 6.3333 20.267l19 48.387z"/></g></svg>
